<?xml version="1.0" encoding="utf-8"?>
<svg version="1.1" xmlns:xlink="http://www.w3.org/1999/xlink" width="12px" height="12px" viewBox="750 517.5  12 12" xmlns="http://www.w3.org/2000/svg">
  <path d="M 756 517.5  C 759.36 517.5  762 520.14  762 523.5  C 762 526.86  759.36 529.5  756 529.5  C 752.64 529.5  750 526.86  750 523.5  C 750 520.14  752.64 517.5  756 517.5  Z " fill-rule="nonzero" fill="#ffffff" stroke="none" />
  <path d="M 756 518  C 759.08 518  761.5 520.42  761.5 523.5  C 761.5 526.58  759.08 529  756 529  C 752.92 529  750.5 526.58  750.5 523.5  C 750.5 520.42  752.92 518  756 518  Z " stroke-width="1" stroke="#797979" fill="none" />
  <path d="M 756 526.5  C 754.32 526.5  753 525.18  753 523.5  C 753 521.82  754.32 520.5  756 520.5  C 757.68 520.5  759 521.82  759 523.5  C 759 525.18  757.68 526.5  756 526.5  " fill-rule="nonzero" fill="#797979" stroke="none" />
</svg>