<?xml version="1.0" encoding="utf-8"?>
<svg version="1.1" xmlns:xlink="http://www.w3.org/1999/xlink" width="16px" height="13px" xmlns="http://www.w3.org/2000/svg">
  <g transform="matrix(1 0 0 1 -456 -264 )">
    <path d="M 11.3125 8.125  C 11.3125 8.19835069444444  11.2827380952381 8.26323784722222  11.2232142857143 8.31966145833333  L 9.91964285714286 9.55533854166667  C 9.86011904761905 9.61176215277778  9.79166666666667 9.63997395833333  9.71428571428571 9.63997395833333  C 9.63690476190476 9.63997395833333  9.56845238095238 9.61176215277778  9.50892857142857 9.55533854166667  L 8 8.125  L 6.49107142857143 9.55533854166667  C 6.43154761904762 9.61176215277778  6.36309523809524 9.63997395833333  6.28571428571429 9.63997395833333  C 6.20833333333333 9.63997395833333  6.13988095238095 9.61176215277778  6.08035714285714 9.55533854166667  L 4.77678571428571 8.31966145833333  C 4.71726190476191 8.26323784722222  4.6875 8.19835069444444  4.6875 8.125  C 4.6875 8.05164930555556  4.71726190476191 7.98676215277778  4.77678571428571 7.93033854166667  L 6.28571428571429 6.5  L 4.77678571428571 5.06966145833333  C 4.71726190476191 5.01323784722222  4.6875 4.94835069444444  4.6875 4.875  C 4.6875 4.80164930555556  4.71726190476191 4.73676215277778  4.77678571428571 4.68033854166667  L 6.08035714285714 3.44466145833333  C 6.13988095238095 3.38823784722222  6.20833333333333 3.36002604166667  6.28571428571429 3.36002604166667  C 6.36309523809524 3.36002604166667  6.43154761904762 3.38823784722222  6.49107142857143 3.44466145833333  L 8 4.875  L 9.50892857142857 3.44466145833333  C 9.56845238095238 3.38823784722222  9.63690476190476 3.36002604166667  9.71428571428571 3.36002604166667  C 9.79166666666667 3.36002604166667  9.86011904761905 3.38823784722222  9.91964285714286 3.44466145833333  L 11.2232142857143 4.68033854166667  C 11.2827380952381 4.73676215277778  11.3125 4.80164930555556  11.3125 4.875  C 11.3125 4.94835069444444  11.2827380952381 5.01323784722222  11.2232142857143 5.06966145833333  L 9.71428571428571 6.5  L 11.2232142857143 7.93033854166667  C 11.2827380952381 7.98676215277778  11.3125 8.05164930555556  11.3125 8.125  Z M 2.28571428571429 2.16666666666667  L 2.28571428571429 10.8333333333333  L 13.7142857142857 10.8333333333333  L 13.7142857142857 2.16666666666667  L 2.28571428571429 2.16666666666667  Z M 15.5803571428571 0.397786458333334  C 15.860119047619 0.662977430555555  16 0.981770833333334  16 1.35416666666667  L 16 11.6458333333333  C 16 12.0182291666667  15.860119047619 12.3370225694444  15.5803571428571 12.6022135416667  C 15.3005952380952 12.8674045138889  14.9642857142857 13  14.5714285714286 13  L 1.42857142857143 13  C 1.03571428571429 13  0.699404761904762 12.8674045138889  0.419642857142857 12.6022135416667  C 0.139880952380952 12.3370225694444  0 12.0182291666667  0 11.6458333333333  L 0 1.35416666666667  C 0 0.981770833333334  0.139880952380952 0.662977430555555  0.419642857142857 0.397786458333334  C 0.699404761904762 0.13259548611111  1.03571428571429 0  1.42857142857143 0  L 14.5714285714286 0  C 14.9642857142857 0  15.3005952380952 0.13259548611111  15.5803571428571 0.397786458333334  Z " fill-rule="nonzero" fill="#7f7f7f" stroke="none" transform="matrix(1 0 0 1 456 264 )" />
  </g>
</svg>