<?xml version="1.0" encoding="utf-8"?>
<svg version="1.1" xmlns:xlink="http://www.w3.org/1999/xlink" width="18px" height="24px" xmlns="http://www.w3.org/2000/svg">
  <g transform="matrix(1 0 0 1 -818 -160 )">
    <path d="M 11.6172972972973 18.225  C 11.772972972973 18.375  11.8508108108108 18.55  11.8508108108108 18.75  L 11.8508108108108 23.25  C 11.8508108108108 23.45  11.772972972973 23.625  11.6172972972973 23.775  C 11.4616216216216 23.925  11.28 24  11.0724324324324 24  L 6.40216216216216 24  C 6.1945945945946 24  6.01297297297297 23.925  5.8572972972973 23.775  C 5.70162162162162 23.625  5.62378378378378 23.45  5.62378378378378 23.25  L 5.62378378378378 18.75  C 5.62378378378378 18.55  5.70162162162162 18.375  5.8572972972973 18.225  C 6.01297297297297 18.075  6.1945945945946 18  6.40216216216216 18  L 11.0724324324324 18  C 11.28 18  11.4616216216216 18.075  11.6172972972973 18.225  Z M 17.2021621621622 4.528125  C 17.7340540540541 5.471875  18 6.4625  18 7.5  C 18 8.175  17.8994594594595 8.80625  17.6983783783784 9.39375  C 17.4972972972973 9.98125  17.2702702702703 10.459375  17.0172972972973 10.828125  C 16.7643243243243 11.196875  16.4075675675676 11.56875  15.947027027027 11.94375  C 15.4864864864865 12.31875  15.1135135135135 12.590625  14.8281081081081 12.759375  C 14.5427027027027 12.928125  14.147027027027 13.15  13.6410810810811 13.425  C 13.1091891891892 13.7125  12.6648648648649 14.11875  12.3081081081081 14.64375  C 11.9513513513514 15.16875  11.772972972973 15.5875  11.772972972973 15.9  C 11.772972972973 16.1125  11.6951351351351 16.315625  11.5394594594595 16.509375  C 11.3837837837838 16.703125  11.2021621621622 16.8  10.9945945945946 16.8  L 6.32432432432432 16.8  C 6.12972972972973 16.8  5.96432432432433 16.684375  5.82810810810811 16.453125  C 5.69189189189189 16.221875  5.62378378378378 15.9875  5.62378378378378 15.75  L 5.62378378378378 14.90625  C 5.62378378378378 13.86875  6.0454054054054 12.890625  6.88864864864865 11.971875  C 7.73189189189189 11.053125  8.65945945945946 10.375  9.67135135135135 9.9375  C 10.4367567567568 9.6  10.9816216216216 9.25  11.3059459459459 8.8875  C 11.6302702702703 8.525  11.7924324324324 8.05  11.7924324324324 7.4625  C 11.7924324324324 6.9375  11.4908108108108 6.475  10.8875675675676 6.075  C 10.2843243243243 5.675  9.58702702702703 5.475  8.79567567567568 5.475  C 7.95243243243243 5.475  7.25189189189189 5.65625  6.69405405405405 6.01875  C 6.24 6.33125  5.54594594594595 7.05  4.61189189189189 8.175  C 4.44324324324324 8.375  4.24216216216216 8.475  4.00864864864865 8.475  C 3.85297297297297 8.475  3.69081081081081 8.425  3.52216216216216 8.325  L 0.330810810810811 5.98125  C 0.162162162162162 5.85625  0.061621621621622 5.7  0.0291891891891892 5.5125  C -0.00324324324324306 5.325  0.0324324324324325 5.15  0.136216216216216 4.9875  C 2.21189189189189 1.6625  5.22162162162162 0  9.16540540540541 0  C 10.2032432432432 0  11.2475675675676 0.19375  12.2983783783784 0.581249999999999  C 13.3491891891892 0.968749999999998  14.2962162162162 1.4875  15.1394594594595 2.1375  C 15.9827027027027 2.7875  16.6702702702703 3.584375  17.2021621621622 4.528125  Z " fill-rule="nonzero" fill="#000000" stroke="none" transform="matrix(1 0 0 1 818 160 )" />
  </g>
</svg>