<?xml version="1.0" encoding="utf-8"?>
<svg version="1.1" xmlns:xlink="http://www.w3.org/1999/xlink" width="12px" height="12px" viewBox="1075 549.5  12 12" xmlns="http://www.w3.org/2000/svg">
  <path d="M 1081 549.5  C 1084.36 549.5  1087 552.14  1087 555.5  C 1087 558.86  1084.36 561.5  1081 561.5  C 1077.64 561.5  1075 558.86  1075 555.5  C 1075 552.14  1077.64 549.5  1081 549.5  Z " fill-rule="nonzero" fill="#ffffff" stroke="none" />
  <path d="M 1081 550  C 1084.08 550  1086.5 552.42  1086.5 555.5  C 1086.5 558.58  1084.08 561  1081 561  C 1077.92 561  1075.5 558.58  1075.5 555.5  C 1075.5 552.42  1077.92 550  1081 550  Z " stroke-width="1" stroke="#797979" fill="none" />
  <path d="M 1081 558.5  C 1079.32 558.5  1078 557.18  1078 555.5  C 1078 553.82  1079.32 552.5  1081 552.5  C 1082.68 552.5  1084 553.82  1084 555.5  C 1084 557.18  1082.68 558.5  1081 558.5  " fill-rule="nonzero" fill="#797979" stroke="none" />
</svg>